<mxfile host="app.diagrams.net" agent="Mozilla/5.0 (X11; Linux x86_64; rv:130.0) Gecko/20100101 Firefox/130.0" version="24.7.14">
  <diagram name="Page-1" id="etVlhiiT5bMe6d0pypbC">
    <mxGraphModel dx="2284" dy="759" grid="0" gridSize="10" guides="1" tooltips="1" connect="1" arrows="1" fold="1" page="1" pageScale="1" pageWidth="850" pageHeight="1100" background="none" math="0" shadow="0">
      <root>
        <mxCell id="0" />
        <mxCell id="1" parent="0" />
        <mxCell id="fOX6goUL02FyGiLr_u4U-35" value="Person" style="swimlane;fontStyle=0;childLayout=stackLayout;horizontal=1;startSize=26;fillColor=none;horizontalStack=0;resizeParent=1;resizeParentMax=0;resizeLast=0;collapsible=1;marginBottom=0;whiteSpace=wrap;html=1;" parent="1" vertex="1">
          <mxGeometry x="-768" y="102" width="283" height="294" as="geometry" />
        </mxCell>
        <mxCell id="fOX6goUL02FyGiLr_u4U-71" value="+ BASE_PLANET: String = &quot;Earth&quot;" style="text;strokeColor=none;fillColor=none;align=left;verticalAlign=top;spacingLeft=4;spacingRight=4;overflow=hidden;rotatable=0;points=[[0,0.5],[1,0.5]];portConstraint=eastwest;whiteSpace=wrap;html=1;" parent="fOX6goUL02FyGiLr_u4U-35" vertex="1">
          <mxGeometry y="26" width="283" height="26" as="geometry" />
        </mxCell>
        <mxCell id="fOX6goUL02FyGiLr_u4U-47" value="- id: int {readOnly}" style="text;strokeColor=none;fillColor=none;align=left;verticalAlign=top;spacingLeft=4;spacingRight=4;overflow=hidden;rotatable=0;points=[[0,0.5],[1,0.5]];portConstraint=eastwest;whiteSpace=wrap;html=1;" parent="fOX6goUL02FyGiLr_u4U-35" vertex="1">
          <mxGeometry y="52" width="283" height="26" as="geometry" />
        </mxCell>
        <mxCell id="fOX6goUL02FyGiLr_u4U-36" value="- name: String" style="text;strokeColor=none;fillColor=none;align=left;verticalAlign=top;spacingLeft=4;spacingRight=4;overflow=hidden;rotatable=0;points=[[0,0.5],[1,0.5]];portConstraint=eastwest;whiteSpace=wrap;html=1;" parent="fOX6goUL02FyGiLr_u4U-35" vertex="1">
          <mxGeometry y="78" width="283" height="26" as="geometry" />
        </mxCell>
        <mxCell id="fOX6goUL02FyGiLr_u4U-37" value="- age: int" style="text;strokeColor=none;fillColor=none;align=left;verticalAlign=top;spacingLeft=4;spacingRight=4;overflow=hidden;rotatable=0;points=[[0,0.5],[1,0.5]];portConstraint=eastwest;whiteSpace=wrap;html=1;" parent="fOX6goUL02FyGiLr_u4U-35" vertex="1">
          <mxGeometry y="104" width="283" height="26" as="geometry" />
        </mxCell>
        <mxCell id="fOX6goUL02FyGiLr_u4U-39" value="" style="line;strokeWidth=1;fillColor=none;align=left;verticalAlign=middle;spacingTop=-1;spacingLeft=3;spacingRight=3;rotatable=0;labelPosition=right;points=[];portConstraint=eastwest;strokeColor=inherit;" parent="fOX6goUL02FyGiLr_u4U-35" vertex="1">
          <mxGeometry y="130" width="283" height="8" as="geometry" />
        </mxCell>
        <mxCell id="fOX6goUL02FyGiLr_u4U-38" value="+ Person(id: int, name: String, age: int)" style="text;strokeColor=none;fillColor=none;align=left;verticalAlign=top;spacingLeft=4;spacingRight=4;overflow=hidden;rotatable=0;points=[[0,0.5],[1,0.5]];portConstraint=eastwest;whiteSpace=wrap;html=1;" parent="fOX6goUL02FyGiLr_u4U-35" vertex="1">
          <mxGeometry y="138" width="283" height="26" as="geometry" />
        </mxCell>
        <mxCell id="fOX6goUL02FyGiLr_u4U-40" value="&lt;div&gt;+ getName(): String&lt;br&gt;&lt;/div&gt;" style="text;strokeColor=none;fillColor=none;align=left;verticalAlign=top;spacingLeft=4;spacingRight=4;overflow=hidden;rotatable=0;points=[[0,0.5],[1,0.5]];portConstraint=eastwest;whiteSpace=wrap;html=1;" parent="fOX6goUL02FyGiLr_u4U-35" vertex="1">
          <mxGeometry y="164" width="283" height="26" as="geometry" />
        </mxCell>
        <mxCell id="fOX6goUL02FyGiLr_u4U-41" value="+ setName(name: String): void" style="text;strokeColor=none;fillColor=none;align=left;verticalAlign=top;spacingLeft=4;spacingRight=4;overflow=hidden;rotatable=0;points=[[0,0.5],[1,0.5]];portConstraint=eastwest;whiteSpace=wrap;html=1;" parent="fOX6goUL02FyGiLr_u4U-35" vertex="1">
          <mxGeometry y="190" width="283" height="26" as="geometry" />
        </mxCell>
        <mxCell id="fOX6goUL02FyGiLr_u4U-42" value="+ getAge(): int" style="text;strokeColor=none;fillColor=none;align=left;verticalAlign=top;spacingLeft=4;spacingRight=4;overflow=hidden;rotatable=0;points=[[0,0.5],[1,0.5]];portConstraint=eastwest;whiteSpace=wrap;html=1;" parent="fOX6goUL02FyGiLr_u4U-35" vertex="1">
          <mxGeometry y="216" width="283" height="26" as="geometry" />
        </mxCell>
        <mxCell id="fOX6goUL02FyGiLr_u4U-43" value="+ setAge(age: int): void" style="text;strokeColor=none;fillColor=none;align=left;verticalAlign=top;spacingLeft=4;spacingRight=4;overflow=hidden;rotatable=0;points=[[0,0.5],[1,0.5]];portConstraint=eastwest;whiteSpace=wrap;html=1;" parent="fOX6goUL02FyGiLr_u4U-35" vertex="1">
          <mxGeometry y="242" width="283" height="26" as="geometry" />
        </mxCell>
        <mxCell id="fOX6goUL02FyGiLr_u4U-44" value="# &lt;span&gt;canPracticeDrive&lt;/span&gt;(age: int): bool" style="text;strokeColor=none;fillColor=none;align=left;verticalAlign=top;spacingLeft=4;spacingRight=4;overflow=hidden;rotatable=0;points=[[0,0.5],[1,0.5]];portConstraint=eastwest;whiteSpace=wrap;html=1;fontStyle=0" parent="fOX6goUL02FyGiLr_u4U-35" vertex="1">
          <mxGeometry y="268" width="283" height="26" as="geometry" />
        </mxCell>
        <mxCell id="fOX6goUL02FyGiLr_u4U-45" value="" style="endArrow=none;html=1;rounded=0;exitX=0.057;exitY=0.769;exitDx=0;exitDy=0;exitPerimeter=0;" parent="fOX6goUL02FyGiLr_u4U-35" source="fOX6goUL02FyGiLr_u4U-44" edge="1">
          <mxGeometry width="50" height="50" relative="1" as="geometry">
            <mxPoint x="48" y="286" as="sourcePoint" />
            <mxPoint x="105" y="288" as="targetPoint" />
          </mxGeometry>
        </mxCell>
        <mxCell id="fOX6goUL02FyGiLr_u4U-48" value="" style="swimlane;startSize=0;" parent="1" vertex="1">
          <mxGeometry x="-814" y="48" width="386" height="371" as="geometry" />
        </mxCell>
        <mxCell id="fOX6goUL02FyGiLr_u4U-72" value="" style="endArrow=none;html=1;rounded=0;exitX=0.057;exitY=0.769;exitDx=0;exitDy=0;exitPerimeter=0;" parent="fOX6goUL02FyGiLr_u4U-48" edge="1">
          <mxGeometry width="50" height="50" relative="1" as="geometry">
            <mxPoint x="61" y="102" as="sourcePoint" />
            <mxPoint x="150" y="102" as="targetPoint" />
          </mxGeometry>
        </mxCell>
        <mxCell id="fOX6goUL02FyGiLr_u4U-46" value="Class Diagram" style="text;html=1;align=center;verticalAlign=middle;resizable=0;points=[];autosize=1;strokeColor=none;fillColor=none;" parent="fOX6goUL02FyGiLr_u4U-48" vertex="1">
          <mxGeometry x="15" y="9" width="97" height="26" as="geometry" />
        </mxCell>
        <mxCell id="fOX6goUL02FyGiLr_u4U-52" value="" style="endArrow=block;endFill=0;endSize=12;html=1;rounded=0;exitX=0.457;exitY=0;exitDx=0;exitDy=0;exitPerimeter=0;entryX=0.221;entryY=0.962;entryDx=0;entryDy=0;entryPerimeter=0;" parent="1" source="fOX6goUL02FyGiLr_u4U-18" edge="1">
          <mxGeometry width="160" relative="1" as="geometry">
            <mxPoint x="-131" y="424" as="sourcePoint" />
            <mxPoint x="-14.992999999999938" y="387.01199999999994" as="targetPoint" />
          </mxGeometry>
        </mxCell>
        <mxCell id="fOX6goUL02FyGiLr_u4U-55" value="" style="swimlane;startSize=0;" parent="1" vertex="1">
          <mxGeometry x="-259" y="48" width="596" height="507" as="geometry" />
        </mxCell>
        <mxCell id="fOX6goUL02FyGiLr_u4U-58" value="Person" style="swimlane;fontStyle=0;childLayout=stackLayout;horizontal=1;startSize=26;fillColor=none;horizontalStack=0;resizeParent=1;resizeParentMax=0;resizeLast=0;collapsible=1;marginBottom=0;whiteSpace=wrap;html=1;" parent="fOX6goUL02FyGiLr_u4U-55" vertex="1">
          <mxGeometry x="177.5" y="71" width="283" height="268" as="geometry" />
        </mxCell>
        <mxCell id="fOX6goUL02FyGiLr_u4U-59" value="- id: int {readOnly}" style="text;strokeColor=none;fillColor=none;align=left;verticalAlign=top;spacingLeft=4;spacingRight=4;overflow=hidden;rotatable=0;points=[[0,0.5],[1,0.5]];portConstraint=eastwest;whiteSpace=wrap;html=1;" parent="fOX6goUL02FyGiLr_u4U-58" vertex="1">
          <mxGeometry y="26" width="283" height="26" as="geometry" />
        </mxCell>
        <mxCell id="fOX6goUL02FyGiLr_u4U-60" value="- name: String" style="text;strokeColor=none;fillColor=none;align=left;verticalAlign=top;spacingLeft=4;spacingRight=4;overflow=hidden;rotatable=0;points=[[0,0.5],[1,0.5]];portConstraint=eastwest;whiteSpace=wrap;html=1;" parent="fOX6goUL02FyGiLr_u4U-58" vertex="1">
          <mxGeometry y="52" width="283" height="26" as="geometry" />
        </mxCell>
        <mxCell id="fOX6goUL02FyGiLr_u4U-61" value="- age: int" style="text;strokeColor=none;fillColor=none;align=left;verticalAlign=top;spacingLeft=4;spacingRight=4;overflow=hidden;rotatable=0;points=[[0,0.5],[1,0.5]];portConstraint=eastwest;whiteSpace=wrap;html=1;" parent="fOX6goUL02FyGiLr_u4U-58" vertex="1">
          <mxGeometry y="78" width="283" height="26" as="geometry" />
        </mxCell>
        <mxCell id="fOX6goUL02FyGiLr_u4U-62" value="" style="line;strokeWidth=1;fillColor=none;align=left;verticalAlign=middle;spacingTop=-1;spacingLeft=3;spacingRight=3;rotatable=0;labelPosition=right;points=[];portConstraint=eastwest;strokeColor=inherit;" parent="fOX6goUL02FyGiLr_u4U-58" vertex="1">
          <mxGeometry y="104" width="283" height="8" as="geometry" />
        </mxCell>
        <mxCell id="fOX6goUL02FyGiLr_u4U-63" value="+ Person(id: int, name: String, age: int)" style="text;strokeColor=none;fillColor=none;align=left;verticalAlign=top;spacingLeft=4;spacingRight=4;overflow=hidden;rotatable=0;points=[[0,0.5],[1,0.5]];portConstraint=eastwest;whiteSpace=wrap;html=1;" parent="fOX6goUL02FyGiLr_u4U-58" vertex="1">
          <mxGeometry y="112" width="283" height="26" as="geometry" />
        </mxCell>
        <mxCell id="fOX6goUL02FyGiLr_u4U-64" value="&lt;div&gt;+ getName(): String&lt;br&gt;&lt;/div&gt;" style="text;strokeColor=none;fillColor=none;align=left;verticalAlign=top;spacingLeft=4;spacingRight=4;overflow=hidden;rotatable=0;points=[[0,0.5],[1,0.5]];portConstraint=eastwest;whiteSpace=wrap;html=1;" parent="fOX6goUL02FyGiLr_u4U-58" vertex="1">
          <mxGeometry y="138" width="283" height="26" as="geometry" />
        </mxCell>
        <mxCell id="fOX6goUL02FyGiLr_u4U-65" value="+ setName(name: String): void" style="text;strokeColor=none;fillColor=none;align=left;verticalAlign=top;spacingLeft=4;spacingRight=4;overflow=hidden;rotatable=0;points=[[0,0.5],[1,0.5]];portConstraint=eastwest;whiteSpace=wrap;html=1;" parent="fOX6goUL02FyGiLr_u4U-58" vertex="1">
          <mxGeometry y="164" width="283" height="26" as="geometry" />
        </mxCell>
        <mxCell id="fOX6goUL02FyGiLr_u4U-66" value="+ getAge(): int" style="text;strokeColor=none;fillColor=none;align=left;verticalAlign=top;spacingLeft=4;spacingRight=4;overflow=hidden;rotatable=0;points=[[0,0.5],[1,0.5]];portConstraint=eastwest;whiteSpace=wrap;html=1;" parent="fOX6goUL02FyGiLr_u4U-58" vertex="1">
          <mxGeometry y="190" width="283" height="26" as="geometry" />
        </mxCell>
        <mxCell id="fOX6goUL02FyGiLr_u4U-67" value="+ setAge(age: int): void" style="text;strokeColor=none;fillColor=none;align=left;verticalAlign=top;spacingLeft=4;spacingRight=4;overflow=hidden;rotatable=0;points=[[0,0.5],[1,0.5]];portConstraint=eastwest;whiteSpace=wrap;html=1;" parent="fOX6goUL02FyGiLr_u4U-58" vertex="1">
          <mxGeometry y="216" width="283" height="26" as="geometry" />
        </mxCell>
        <mxCell id="fOX6goUL02FyGiLr_u4U-68" value="# &lt;span&gt;canPracticeDrive&lt;/span&gt;(age: int): bool" style="text;strokeColor=none;fillColor=none;align=left;verticalAlign=top;spacingLeft=4;spacingRight=4;overflow=hidden;rotatable=0;points=[[0,0.5],[1,0.5]];portConstraint=eastwest;whiteSpace=wrap;html=1;fontStyle=0" parent="fOX6goUL02FyGiLr_u4U-58" vertex="1">
          <mxGeometry y="242" width="283" height="26" as="geometry" />
        </mxCell>
        <mxCell id="fOX6goUL02FyGiLr_u4U-69" value="" style="endArrow=none;html=1;rounded=0;exitX=0.057;exitY=0.769;exitDx=0;exitDy=0;exitPerimeter=0;" parent="fOX6goUL02FyGiLr_u4U-58" source="fOX6goUL02FyGiLr_u4U-68" edge="1">
          <mxGeometry width="50" height="50" relative="1" as="geometry">
            <mxPoint x="48" y="286" as="sourcePoint" />
            <mxPoint x="105" y="262" as="targetPoint" />
          </mxGeometry>
        </mxCell>
        <mxCell id="fOX6goUL02FyGiLr_u4U-49" value="Generalization &lt;br&gt;&lt;div&gt;(Inheritance)&lt;/div&gt;" style="text;html=1;align=center;verticalAlign=middle;resizable=0;points=[];autosize=1;strokeColor=none;fillColor=none;" parent="fOX6goUL02FyGiLr_u4U-55" vertex="1">
          <mxGeometry x="12" y="12" width="95" height="41" as="geometry" />
        </mxCell>
        <mxCell id="fOX6goUL02FyGiLr_u4U-22" value="Teacher" style="swimlane;fontStyle=0;childLayout=stackLayout;horizontal=1;startSize=26;fillColor=none;horizontalStack=0;resizeParent=1;resizeParentMax=0;resizeLast=0;collapsible=1;marginBottom=0;whiteSpace=wrap;html=1;" parent="fOX6goUL02FyGiLr_u4U-55" vertex="1">
          <mxGeometry x="334" y="422" width="140" height="52" as="geometry" />
        </mxCell>
        <mxCell id="fOX6goUL02FyGiLr_u4U-57" value="- teacherId: int" style="text;strokeColor=none;fillColor=none;align=left;verticalAlign=top;spacingLeft=4;spacingRight=4;overflow=hidden;rotatable=0;points=[[0,0.5],[1,0.5]];portConstraint=eastwest;whiteSpace=wrap;html=1;" parent="fOX6goUL02FyGiLr_u4U-55" vertex="1">
          <mxGeometry x="334" y="448" width="140" height="26" as="geometry" />
        </mxCell>
        <mxCell id="fOX6goUL02FyGiLr_u4U-18" value="Student" style="swimlane;fontStyle=0;childLayout=stackLayout;horizontal=1;startSize=26;fillColor=none;horizontalStack=0;resizeParent=1;resizeParentMax=0;resizeLast=0;collapsible=1;marginBottom=0;whiteSpace=wrap;html=1;" parent="fOX6goUL02FyGiLr_u4U-55" vertex="1">
          <mxGeometry x="160" y="422" width="140" height="52" as="geometry" />
        </mxCell>
        <mxCell id="fOX6goUL02FyGiLr_u4U-70" value="- studentId: int" style="text;strokeColor=none;fillColor=none;align=left;verticalAlign=top;spacingLeft=4;spacingRight=4;overflow=hidden;rotatable=0;points=[[0,0.5],[1,0.5]];portConstraint=eastwest;whiteSpace=wrap;html=1;" parent="fOX6goUL02FyGiLr_u4U-18" vertex="1">
          <mxGeometry y="26" width="140" height="26" as="geometry" />
        </mxCell>
        <mxCell id="fOX6goUL02FyGiLr_u4U-53" value="" style="endArrow=block;endFill=0;endSize=12;html=1;rounded=0;exitX=0.5;exitY=0;exitDx=0;exitDy=0;entryX=0.723;entryY=0.962;entryDx=0;entryDy=0;entryPerimeter=0;" parent="fOX6goUL02FyGiLr_u4U-55" source="fOX6goUL02FyGiLr_u4U-22" target="fOX6goUL02FyGiLr_u4U-68" edge="1">
          <mxGeometry width="160" relative="1" as="geometry">
            <mxPoint x="144" y="433" as="sourcePoint" />
            <mxPoint x="320" y="338" as="targetPoint" />
          </mxGeometry>
        </mxCell>
        <mxCell id="fOX6goUL02FyGiLr_u4U-73" value="Person" style="swimlane;fontStyle=0;childLayout=stackLayout;horizontal=1;startSize=26;fillColor=none;horizontalStack=0;resizeParent=1;resizeParentMax=0;resizeLast=0;collapsible=1;marginBottom=0;whiteSpace=wrap;html=1;" parent="1" vertex="1">
          <mxGeometry x="623.5" y="279" width="283" height="190" as="geometry" />
        </mxCell>
        <mxCell id="fOX6goUL02FyGiLr_u4U-74" value="- id: int {readOnly}" style="text;strokeColor=none;fillColor=none;align=left;verticalAlign=top;spacingLeft=4;spacingRight=4;overflow=hidden;rotatable=0;points=[[0,0.5],[1,0.5]];portConstraint=eastwest;whiteSpace=wrap;html=1;" parent="fOX6goUL02FyGiLr_u4U-73" vertex="1">
          <mxGeometry y="26" width="283" height="26" as="geometry" />
        </mxCell>
        <mxCell id="fOX6goUL02FyGiLr_u4U-75" value="- name: String" style="text;strokeColor=none;fillColor=none;align=left;verticalAlign=top;spacingLeft=4;spacingRight=4;overflow=hidden;rotatable=0;points=[[0,0.5],[1,0.5]];portConstraint=eastwest;whiteSpace=wrap;html=1;" parent="fOX6goUL02FyGiLr_u4U-73" vertex="1">
          <mxGeometry y="52" width="283" height="26" as="geometry" />
        </mxCell>
        <mxCell id="fOX6goUL02FyGiLr_u4U-76" value="- age: int" style="text;strokeColor=none;fillColor=none;align=left;verticalAlign=top;spacingLeft=4;spacingRight=4;overflow=hidden;rotatable=0;points=[[0,0.5],[1,0.5]];portConstraint=eastwest;whiteSpace=wrap;html=1;" parent="fOX6goUL02FyGiLr_u4U-73" vertex="1">
          <mxGeometry y="78" width="283" height="26" as="geometry" />
        </mxCell>
        <mxCell id="fOX6goUL02FyGiLr_u4U-77" value="" style="line;strokeWidth=1;fillColor=none;align=left;verticalAlign=middle;spacingTop=-1;spacingLeft=3;spacingRight=3;rotatable=0;labelPosition=right;points=[];portConstraint=eastwest;strokeColor=inherit;" parent="fOX6goUL02FyGiLr_u4U-73" vertex="1">
          <mxGeometry y="104" width="283" height="8" as="geometry" />
        </mxCell>
        <mxCell id="fOX6goUL02FyGiLr_u4U-78" value="+ Person(id: int, name: String, age: int)" style="text;strokeColor=none;fillColor=none;align=left;verticalAlign=top;spacingLeft=4;spacingRight=4;overflow=hidden;rotatable=0;points=[[0,0.5],[1,0.5]];portConstraint=eastwest;whiteSpace=wrap;html=1;" parent="fOX6goUL02FyGiLr_u4U-73" vertex="1">
          <mxGeometry y="112" width="283" height="26" as="geometry" />
        </mxCell>
        <mxCell id="fOX6goUL02FyGiLr_u4U-89" value="+ work(): void" style="text;strokeColor=none;fillColor=none;align=left;verticalAlign=top;spacingLeft=4;spacingRight=4;overflow=hidden;rotatable=0;points=[[0,0.5],[1,0.5]];portConstraint=eastwest;whiteSpace=wrap;html=1;" parent="fOX6goUL02FyGiLr_u4U-73" vertex="1">
          <mxGeometry y="138" width="283" height="26" as="geometry" />
        </mxCell>
        <mxCell id="fOX6goUL02FyGiLr_u4U-90" value="+ sleep(): void" style="text;strokeColor=none;fillColor=none;align=left;verticalAlign=top;spacingLeft=4;spacingRight=4;overflow=hidden;rotatable=0;points=[[0,0.5],[1,0.5]];portConstraint=eastwest;whiteSpace=wrap;html=1;" parent="fOX6goUL02FyGiLr_u4U-73" vertex="1">
          <mxGeometry y="164" width="283" height="26" as="geometry" />
        </mxCell>
        <mxCell id="fOX6goUL02FyGiLr_u4U-110" value="" style="swimlane;startSize=0;" parent="1" vertex="1">
          <mxGeometry x="529" y="48" width="456" height="484" as="geometry" />
        </mxCell>
        <mxCell id="fOX6goUL02FyGiLr_u4U-85" value="&lt;div&gt;«interface»&lt;br&gt;&lt;/div&gt;&lt;div&gt;Workable&lt;/div&gt;" style="swimlane;fontStyle=0;childLayout=stackLayout;horizontal=1;startSize=26;fillColor=none;horizontalStack=0;resizeParent=1;resizeParentMax=0;resizeLast=0;collapsible=1;marginBottom=0;whiteSpace=wrap;html=1;" parent="fOX6goUL02FyGiLr_u4U-110" vertex="1">
          <mxGeometry x="165" y="83" width="140" height="52" as="geometry" />
        </mxCell>
        <mxCell id="fOX6goUL02FyGiLr_u4U-86" value="work(): void" style="text;strokeColor=none;fillColor=none;align=left;verticalAlign=top;spacingLeft=4;spacingRight=4;overflow=hidden;rotatable=0;points=[[0,0.5],[1,0.5]];portConstraint=eastwest;whiteSpace=wrap;html=1;" parent="fOX6goUL02FyGiLr_u4U-85" vertex="1">
          <mxGeometry y="26" width="140" height="26" as="geometry" />
        </mxCell>
        <mxCell id="fOX6goUL02FyGiLr_u4U-112" value="&lt;div&gt;Realization&lt;/div&gt;(Implement interface)" style="text;html=1;align=center;verticalAlign=middle;resizable=0;points=[];autosize=1;strokeColor=none;fillColor=none;" parent="fOX6goUL02FyGiLr_u4U-110" vertex="1">
          <mxGeometry x="10" y="13" width="131" height="41" as="geometry" />
        </mxCell>
        <mxCell id="fOX6goUL02FyGiLr_u4U-111" value="" style="endArrow=block;dashed=1;endFill=0;endSize=12;html=1;rounded=0;exitX=0.5;exitY=0;exitDx=0;exitDy=0;entryX=0.5;entryY=1;entryDx=0;entryDy=0;" parent="1" source="fOX6goUL02FyGiLr_u4U-73" target="fOX6goUL02FyGiLr_u4U-85" edge="1">
          <mxGeometry width="160" relative="1" as="geometry">
            <mxPoint x="793" y="240" as="sourcePoint" />
            <mxPoint x="953" y="240" as="targetPoint" />
          </mxGeometry>
        </mxCell>
        <mxCell id="fOX6goUL02FyGiLr_u4U-113" value="Person" style="swimlane;fontStyle=0;childLayout=stackLayout;horizontal=1;startSize=26;fillColor=none;horizontalStack=0;resizeParent=1;resizeParentMax=0;resizeLast=0;collapsible=1;marginBottom=0;whiteSpace=wrap;html=1;" parent="1" vertex="1">
          <mxGeometry x="1205" y="308" width="283" height="164" as="geometry" />
        </mxCell>
        <mxCell id="fOX6goUL02FyGiLr_u4U-114" value="- id: int {readOnly}" style="text;strokeColor=none;fillColor=none;align=left;verticalAlign=top;spacingLeft=4;spacingRight=4;overflow=hidden;rotatable=0;points=[[0,0.5],[1,0.5]];portConstraint=eastwest;whiteSpace=wrap;html=1;" parent="fOX6goUL02FyGiLr_u4U-113" vertex="1">
          <mxGeometry y="26" width="283" height="26" as="geometry" />
        </mxCell>
        <mxCell id="fOX6goUL02FyGiLr_u4U-115" value="- name: String" style="text;strokeColor=none;fillColor=none;align=left;verticalAlign=top;spacingLeft=4;spacingRight=4;overflow=hidden;rotatable=0;points=[[0,0.5],[1,0.5]];portConstraint=eastwest;whiteSpace=wrap;html=1;" parent="fOX6goUL02FyGiLr_u4U-113" vertex="1">
          <mxGeometry y="52" width="283" height="26" as="geometry" />
        </mxCell>
        <mxCell id="fOX6goUL02FyGiLr_u4U-116" value="- age: int" style="text;strokeColor=none;fillColor=none;align=left;verticalAlign=top;spacingLeft=4;spacingRight=4;overflow=hidden;rotatable=0;points=[[0,0.5],[1,0.5]];portConstraint=eastwest;whiteSpace=wrap;html=1;" parent="fOX6goUL02FyGiLr_u4U-113" vertex="1">
          <mxGeometry y="78" width="283" height="26" as="geometry" />
        </mxCell>
        <mxCell id="fOX6goUL02FyGiLr_u4U-117" value="" style="line;strokeWidth=1;fillColor=none;align=left;verticalAlign=middle;spacingTop=-1;spacingLeft=3;spacingRight=3;rotatable=0;labelPosition=right;points=[];portConstraint=eastwest;strokeColor=inherit;" parent="fOX6goUL02FyGiLr_u4U-113" vertex="1">
          <mxGeometry y="104" width="283" height="8" as="geometry" />
        </mxCell>
        <mxCell id="fOX6goUL02FyGiLr_u4U-118" value="+ Person(id: int, name: String, age: int)" style="text;strokeColor=none;fillColor=none;align=left;verticalAlign=top;spacingLeft=4;spacingRight=4;overflow=hidden;rotatable=0;points=[[0,0.5],[1,0.5]];portConstraint=eastwest;whiteSpace=wrap;html=1;" parent="fOX6goUL02FyGiLr_u4U-113" vertex="1">
          <mxGeometry y="112" width="283" height="26" as="geometry" />
        </mxCell>
        <mxCell id="fOX6goUL02FyGiLr_u4U-119" value="+ hasRead(book: Book): boolean" style="text;strokeColor=none;fillColor=none;align=left;verticalAlign=top;spacingLeft=4;spacingRight=4;overflow=hidden;rotatable=0;points=[[0,0.5],[1,0.5]];portConstraint=eastwest;whiteSpace=wrap;html=1;" parent="fOX6goUL02FyGiLr_u4U-113" vertex="1">
          <mxGeometry y="138" width="283" height="26" as="geometry" />
        </mxCell>
        <mxCell id="fOX6goUL02FyGiLr_u4U-121" value="Book" style="swimlane;fontStyle=0;childLayout=stackLayout;horizontal=1;startSize=26;fillColor=none;horizontalStack=0;resizeParent=1;resizeParentMax=0;resizeLast=0;collapsible=1;marginBottom=0;whiteSpace=wrap;html=1;" parent="1" vertex="1">
          <mxGeometry x="1213" y="140" width="283" height="112" as="geometry" />
        </mxCell>
        <mxCell id="fOX6goUL02FyGiLr_u4U-122" value="- id: int {readOnly}" style="text;strokeColor=none;fillColor=none;align=left;verticalAlign=top;spacingLeft=4;spacingRight=4;overflow=hidden;rotatable=0;points=[[0,0.5],[1,0.5]];portConstraint=eastwest;whiteSpace=wrap;html=1;" parent="fOX6goUL02FyGiLr_u4U-121" vertex="1">
          <mxGeometry y="26" width="283" height="26" as="geometry" />
        </mxCell>
        <mxCell id="fOX6goUL02FyGiLr_u4U-123" value="- title: String" style="text;strokeColor=none;fillColor=none;align=left;verticalAlign=top;spacingLeft=4;spacingRight=4;overflow=hidden;rotatable=0;points=[[0,0.5],[1,0.5]];portConstraint=eastwest;whiteSpace=wrap;html=1;" parent="fOX6goUL02FyGiLr_u4U-121" vertex="1">
          <mxGeometry y="52" width="283" height="26" as="geometry" />
        </mxCell>
        <mxCell id="fOX6goUL02FyGiLr_u4U-125" value="" style="line;strokeWidth=1;fillColor=none;align=left;verticalAlign=middle;spacingTop=-1;spacingLeft=3;spacingRight=3;rotatable=0;labelPosition=right;points=[];portConstraint=eastwest;strokeColor=inherit;" parent="fOX6goUL02FyGiLr_u4U-121" vertex="1">
          <mxGeometry y="78" width="283" height="8" as="geometry" />
        </mxCell>
        <mxCell id="fOX6goUL02FyGiLr_u4U-126" value="+ Book(id: int, title: String)" style="text;strokeColor=none;fillColor=none;align=left;verticalAlign=top;spacingLeft=4;spacingRight=4;overflow=hidden;rotatable=0;points=[[0,0.5],[1,0.5]];portConstraint=eastwest;whiteSpace=wrap;html=1;" parent="fOX6goUL02FyGiLr_u4U-121" vertex="1">
          <mxGeometry y="86" width="283" height="26" as="geometry" />
        </mxCell>
        <mxCell id="fOX6goUL02FyGiLr_u4U-128" value="" style="endArrow=open;endSize=12;dashed=1;html=1;rounded=0;exitX=0.5;exitY=0;exitDx=0;exitDy=0;entryX=0.473;entryY=0.923;entryDx=0;entryDy=0;entryPerimeter=0;" parent="1" source="fOX6goUL02FyGiLr_u4U-113" target="fOX6goUL02FyGiLr_u4U-126" edge="1">
          <mxGeometry width="160" relative="1" as="geometry">
            <mxPoint x="1527" y="295" as="sourcePoint" />
            <mxPoint x="1424" y="282" as="targetPoint" />
          </mxGeometry>
        </mxCell>
        <mxCell id="fOX6goUL02FyGiLr_u4U-133" value="" style="swimlane;startSize=0;" parent="1" vertex="1">
          <mxGeometry x="1123" y="48" width="431" height="479" as="geometry" />
        </mxCell>
        <mxCell id="fOX6goUL02FyGiLr_u4U-134" value="Dependency" style="text;html=1;align=center;verticalAlign=middle;resizable=0;points=[];autosize=1;strokeColor=none;fillColor=none;" parent="fOX6goUL02FyGiLr_u4U-133" vertex="1">
          <mxGeometry x="30" y="9" width="85" height="26" as="geometry" />
        </mxCell>
        <mxCell id="fOX6goUL02FyGiLr_u4U-135" value="Person" style="swimlane;fontStyle=0;childLayout=stackLayout;horizontal=1;startSize=26;fillColor=none;horizontalStack=0;resizeParent=1;resizeParentMax=0;resizeLast=0;collapsible=1;marginBottom=0;whiteSpace=wrap;html=1;" parent="1" vertex="1">
          <mxGeometry x="-763" y="910" width="283" height="138" as="geometry" />
        </mxCell>
        <mxCell id="fOX6goUL02FyGiLr_u4U-136" value="- id: int {readOnly}" style="text;strokeColor=none;fillColor=none;align=left;verticalAlign=top;spacingLeft=4;spacingRight=4;overflow=hidden;rotatable=0;points=[[0,0.5],[1,0.5]];portConstraint=eastwest;whiteSpace=wrap;html=1;" parent="fOX6goUL02FyGiLr_u4U-135" vertex="1">
          <mxGeometry y="26" width="283" height="26" as="geometry" />
        </mxCell>
        <mxCell id="fOX6goUL02FyGiLr_u4U-137" value="- name: String" style="text;strokeColor=none;fillColor=none;align=left;verticalAlign=top;spacingLeft=4;spacingRight=4;overflow=hidden;rotatable=0;points=[[0,0.5],[1,0.5]];portConstraint=eastwest;whiteSpace=wrap;html=1;" parent="fOX6goUL02FyGiLr_u4U-135" vertex="1">
          <mxGeometry y="52" width="283" height="26" as="geometry" />
        </mxCell>
        <mxCell id="fOX6goUL02FyGiLr_u4U-138" value="- age: int" style="text;strokeColor=none;fillColor=none;align=left;verticalAlign=top;spacingLeft=4;spacingRight=4;overflow=hidden;rotatable=0;points=[[0,0.5],[1,0.5]];portConstraint=eastwest;whiteSpace=wrap;html=1;" parent="fOX6goUL02FyGiLr_u4U-135" vertex="1">
          <mxGeometry y="78" width="283" height="26" as="geometry" />
        </mxCell>
        <mxCell id="fOX6goUL02FyGiLr_u4U-139" value="" style="line;strokeWidth=1;fillColor=none;align=left;verticalAlign=middle;spacingTop=-1;spacingLeft=3;spacingRight=3;rotatable=0;labelPosition=right;points=[];portConstraint=eastwest;strokeColor=inherit;" parent="fOX6goUL02FyGiLr_u4U-135" vertex="1">
          <mxGeometry y="104" width="283" height="8" as="geometry" />
        </mxCell>
        <mxCell id="fOX6goUL02FyGiLr_u4U-140" value="+ Person(id: int, name: String, age: int)" style="text;strokeColor=none;fillColor=none;align=left;verticalAlign=top;spacingLeft=4;spacingRight=4;overflow=hidden;rotatable=0;points=[[0,0.5],[1,0.5]];portConstraint=eastwest;whiteSpace=wrap;html=1;" parent="fOX6goUL02FyGiLr_u4U-135" vertex="1">
          <mxGeometry y="112" width="283" height="26" as="geometry" />
        </mxCell>
        <mxCell id="fOX6goUL02FyGiLr_u4U-142" value="Car" style="swimlane;fontStyle=0;childLayout=stackLayout;horizontal=1;startSize=26;fillColor=none;horizontalStack=0;resizeParent=1;resizeParentMax=0;resizeLast=0;collapsible=1;marginBottom=0;whiteSpace=wrap;html=1;" parent="1" vertex="1">
          <mxGeometry x="-691.5" y="781" width="140" height="52" as="geometry" />
        </mxCell>
        <mxCell id="fOX6goUL02FyGiLr_u4U-143" value="+ brand: String" style="text;strokeColor=none;fillColor=none;align=left;verticalAlign=top;spacingLeft=4;spacingRight=4;overflow=hidden;rotatable=0;points=[[0,0.5],[1,0.5]];portConstraint=eastwest;whiteSpace=wrap;html=1;" parent="fOX6goUL02FyGiLr_u4U-142" vertex="1">
          <mxGeometry y="26" width="140" height="26" as="geometry" />
        </mxCell>
        <mxCell id="fOX6goUL02FyGiLr_u4U-146" value="" style="endArrow=none;html=1;edgeStyle=orthogonalEdgeStyle;rounded=0;exitX=0.5;exitY=0;exitDx=0;exitDy=0;entryX=0.496;entryY=1.038;entryDx=0;entryDy=0;entryPerimeter=0;" parent="1" source="fOX6goUL02FyGiLr_u4U-135" target="fOX6goUL02FyGiLr_u4U-143" edge="1">
          <mxGeometry relative="1" as="geometry">
            <mxPoint x="-667" y="883" as="sourcePoint" />
            <mxPoint x="-507" y="883" as="targetPoint" />
          </mxGeometry>
        </mxCell>
        <mxCell id="fOX6goUL02FyGiLr_u4U-149" value="&lt;div&gt;Own&lt;/div&gt;" style="text;html=1;align=center;verticalAlign=middle;resizable=0;points=[];autosize=1;strokeColor=none;fillColor=none;" parent="1" vertex="1">
          <mxGeometry x="-625" y="859" width="43" height="26" as="geometry" />
        </mxCell>
        <mxCell id="fOX6goUL02FyGiLr_u4U-150" value="Association" style="text;html=1;align=center;verticalAlign=middle;resizable=0;points=[];autosize=1;strokeColor=none;fillColor=none;" parent="1" vertex="1">
          <mxGeometry x="-661" y="717" width="79" height="26" as="geometry" />
        </mxCell>
        <mxCell id="fOX6goUL02FyGiLr_u4U-151" value="&lt;div&gt;Association&lt;/div&gt;&lt;div&gt;Unidirectional&lt;br&gt;&lt;/div&gt;" style="text;html=1;align=center;verticalAlign=middle;resizable=0;points=[];autosize=1;strokeColor=none;fillColor=none;" parent="1" vertex="1">
          <mxGeometry x="-221" y="710" width="91" height="41" as="geometry" />
        </mxCell>
        <mxCell id="fOX6goUL02FyGiLr_u4U-152" value="Person" style="swimlane;fontStyle=0;childLayout=stackLayout;horizontal=1;startSize=26;fillColor=none;horizontalStack=0;resizeParent=1;resizeParentMax=0;resizeLast=0;collapsible=1;marginBottom=0;whiteSpace=wrap;html=1;" parent="1" vertex="1">
          <mxGeometry x="-317" y="910" width="283" height="138" as="geometry" />
        </mxCell>
        <mxCell id="fOX6goUL02FyGiLr_u4U-153" value="- id: int {readOnly}" style="text;strokeColor=none;fillColor=none;align=left;verticalAlign=top;spacingLeft=4;spacingRight=4;overflow=hidden;rotatable=0;points=[[0,0.5],[1,0.5]];portConstraint=eastwest;whiteSpace=wrap;html=1;" parent="fOX6goUL02FyGiLr_u4U-152" vertex="1">
          <mxGeometry y="26" width="283" height="26" as="geometry" />
        </mxCell>
        <mxCell id="fOX6goUL02FyGiLr_u4U-154" value="- name: String" style="text;strokeColor=none;fillColor=none;align=left;verticalAlign=top;spacingLeft=4;spacingRight=4;overflow=hidden;rotatable=0;points=[[0,0.5],[1,0.5]];portConstraint=eastwest;whiteSpace=wrap;html=1;" parent="fOX6goUL02FyGiLr_u4U-152" vertex="1">
          <mxGeometry y="52" width="283" height="26" as="geometry" />
        </mxCell>
        <mxCell id="fOX6goUL02FyGiLr_u4U-155" value="- age: int" style="text;strokeColor=none;fillColor=none;align=left;verticalAlign=top;spacingLeft=4;spacingRight=4;overflow=hidden;rotatable=0;points=[[0,0.5],[1,0.5]];portConstraint=eastwest;whiteSpace=wrap;html=1;" parent="fOX6goUL02FyGiLr_u4U-152" vertex="1">
          <mxGeometry y="78" width="283" height="26" as="geometry" />
        </mxCell>
        <mxCell id="fOX6goUL02FyGiLr_u4U-156" value="" style="line;strokeWidth=1;fillColor=none;align=left;verticalAlign=middle;spacingTop=-1;spacingLeft=3;spacingRight=3;rotatable=0;labelPosition=right;points=[];portConstraint=eastwest;strokeColor=inherit;" parent="fOX6goUL02FyGiLr_u4U-152" vertex="1">
          <mxGeometry y="104" width="283" height="8" as="geometry" />
        </mxCell>
        <mxCell id="fOX6goUL02FyGiLr_u4U-157" value="+ Person(id: int, name: String, age: int)" style="text;strokeColor=none;fillColor=none;align=left;verticalAlign=top;spacingLeft=4;spacingRight=4;overflow=hidden;rotatable=0;points=[[0,0.5],[1,0.5]];portConstraint=eastwest;whiteSpace=wrap;html=1;" parent="fOX6goUL02FyGiLr_u4U-152" vertex="1">
          <mxGeometry y="112" width="283" height="26" as="geometry" />
        </mxCell>
        <mxCell id="fOX6goUL02FyGiLr_u4U-158" value="Passport" style="swimlane;fontStyle=0;childLayout=stackLayout;horizontal=1;startSize=26;fillColor=none;horizontalStack=0;resizeParent=1;resizeParentMax=0;resizeLast=0;collapsible=1;marginBottom=0;whiteSpace=wrap;html=1;" parent="1" vertex="1">
          <mxGeometry x="-272.75" y="779" width="194.5" height="52" as="geometry" />
        </mxCell>
        <mxCell id="fOX6goUL02FyGiLr_u4U-159" value="+&amp;nbsp;passportNumber: int" style="text;strokeColor=none;fillColor=none;align=left;verticalAlign=top;spacingLeft=4;spacingRight=4;overflow=hidden;rotatable=0;points=[[0,0.5],[1,0.5]];portConstraint=eastwest;whiteSpace=wrap;html=1;" parent="fOX6goUL02FyGiLr_u4U-158" vertex="1">
          <mxGeometry y="26" width="194.5" height="26" as="geometry" />
        </mxCell>
        <mxCell id="fOX6goUL02FyGiLr_u4U-162" value="" style="endArrow=block;endFill=1;html=1;edgeStyle=orthogonalEdgeStyle;align=left;verticalAlign=top;rounded=0;entryX=0.5;entryY=1;entryDx=0;entryDy=0;exitX=0.5;exitY=0;exitDx=0;exitDy=0;" parent="1" source="fOX6goUL02FyGiLr_u4U-152" target="fOX6goUL02FyGiLr_u4U-158" edge="1">
          <mxGeometry x="-1" relative="1" as="geometry">
            <mxPoint x="-233" y="888" as="sourcePoint" />
            <mxPoint x="-73" y="888" as="targetPoint" />
          </mxGeometry>
        </mxCell>
        <mxCell id="fOX6goUL02FyGiLr_u4U-164" value="&lt;div&gt;Association&lt;/div&gt;&lt;div&gt;Bidirectional&lt;br&gt;&lt;/div&gt;" style="text;html=1;align=center;verticalAlign=middle;resizable=0;points=[];autosize=1;strokeColor=none;fillColor=none;" parent="1" vertex="1">
          <mxGeometry x="244" y="711" width="83" height="41" as="geometry" />
        </mxCell>
        <mxCell id="fOX6goUL02FyGiLr_u4U-165" value="Person" style="swimlane;fontStyle=0;childLayout=stackLayout;horizontal=1;startSize=26;fillColor=none;horizontalStack=0;resizeParent=1;resizeParentMax=0;resizeLast=0;collapsible=1;marginBottom=0;whiteSpace=wrap;html=1;" parent="1" vertex="1">
          <mxGeometry x="144" y="911" width="283" height="164" as="geometry" />
        </mxCell>
        <mxCell id="fOX6goUL02FyGiLr_u4U-166" value="- id: int {readOnly}" style="text;strokeColor=none;fillColor=none;align=left;verticalAlign=top;spacingLeft=4;spacingRight=4;overflow=hidden;rotatable=0;points=[[0,0.5],[1,0.5]];portConstraint=eastwest;whiteSpace=wrap;html=1;" parent="fOX6goUL02FyGiLr_u4U-165" vertex="1">
          <mxGeometry y="26" width="283" height="26" as="geometry" />
        </mxCell>
        <mxCell id="fOX6goUL02FyGiLr_u4U-167" value="- name: String" style="text;strokeColor=none;fillColor=none;align=left;verticalAlign=top;spacingLeft=4;spacingRight=4;overflow=hidden;rotatable=0;points=[[0,0.5],[1,0.5]];portConstraint=eastwest;whiteSpace=wrap;html=1;" parent="fOX6goUL02FyGiLr_u4U-165" vertex="1">
          <mxGeometry y="52" width="283" height="26" as="geometry" />
        </mxCell>
        <mxCell id="fOX6goUL02FyGiLr_u4U-168" value="- age: int" style="text;strokeColor=none;fillColor=none;align=left;verticalAlign=top;spacingLeft=4;spacingRight=4;overflow=hidden;rotatable=0;points=[[0,0.5],[1,0.5]];portConstraint=eastwest;whiteSpace=wrap;html=1;" parent="fOX6goUL02FyGiLr_u4U-165" vertex="1">
          <mxGeometry y="78" width="283" height="26" as="geometry" />
        </mxCell>
        <mxCell id="fOX6goUL02FyGiLr_u4U-175" value="- bankAccountNumber: int" style="text;strokeColor=none;fillColor=none;align=left;verticalAlign=top;spacingLeft=4;spacingRight=4;overflow=hidden;rotatable=0;points=[[0,0.5],[1,0.5]];portConstraint=eastwest;whiteSpace=wrap;html=1;" parent="fOX6goUL02FyGiLr_u4U-165" vertex="1">
          <mxGeometry y="104" width="283" height="26" as="geometry" />
        </mxCell>
        <mxCell id="fOX6goUL02FyGiLr_u4U-169" value="" style="line;strokeWidth=1;fillColor=none;align=left;verticalAlign=middle;spacingTop=-1;spacingLeft=3;spacingRight=3;rotatable=0;labelPosition=right;points=[];portConstraint=eastwest;strokeColor=inherit;" parent="fOX6goUL02FyGiLr_u4U-165" vertex="1">
          <mxGeometry y="130" width="283" height="8" as="geometry" />
        </mxCell>
        <mxCell id="fOX6goUL02FyGiLr_u4U-170" value="+ Person(id: int, name: String, age: int)" style="text;strokeColor=none;fillColor=none;align=left;verticalAlign=top;spacingLeft=4;spacingRight=4;overflow=hidden;rotatable=0;points=[[0,0.5],[1,0.5]];portConstraint=eastwest;whiteSpace=wrap;html=1;" parent="fOX6goUL02FyGiLr_u4U-165" vertex="1">
          <mxGeometry y="138" width="283" height="26" as="geometry" />
        </mxCell>
        <mxCell id="fOX6goUL02FyGiLr_u4U-171" value="BankAccount" style="swimlane;fontStyle=0;childLayout=stackLayout;horizontal=1;startSize=26;fillColor=none;horizontalStack=0;resizeParent=1;resizeParentMax=0;resizeLast=0;collapsible=1;marginBottom=0;whiteSpace=wrap;html=1;" parent="1" vertex="1">
          <mxGeometry x="168.75" y="781" width="233.5" height="78" as="geometry" />
        </mxCell>
        <mxCell id="fOX6goUL02FyGiLr_u4U-172" value="- accountNumber: int" style="text;strokeColor=none;fillColor=none;align=left;verticalAlign=top;spacingLeft=4;spacingRight=4;overflow=hidden;rotatable=0;points=[[0,0.5],[1,0.5]];portConstraint=eastwest;whiteSpace=wrap;html=1;" parent="fOX6goUL02FyGiLr_u4U-171" vertex="1">
          <mxGeometry y="26" width="233.5" height="26" as="geometry" />
        </mxCell>
        <mxCell id="fOX6goUL02FyGiLr_u4U-176" value="- balance: long" style="text;strokeColor=none;fillColor=none;align=left;verticalAlign=top;spacingLeft=4;spacingRight=4;overflow=hidden;rotatable=0;points=[[0,0.5],[1,0.5]];portConstraint=eastwest;whiteSpace=wrap;html=1;" parent="fOX6goUL02FyGiLr_u4U-171" vertex="1">
          <mxGeometry y="52" width="233.5" height="26" as="geometry" />
        </mxCell>
        <mxCell id="fOX6goUL02FyGiLr_u4U-177" value="" style="endArrow=block;startArrow=block;endFill=1;startFill=1;html=1;rounded=0;exitX=0.502;exitY=1.038;exitDx=0;exitDy=0;exitPerimeter=0;entryX=0.5;entryY=0;entryDx=0;entryDy=0;" parent="1" source="fOX6goUL02FyGiLr_u4U-176" target="fOX6goUL02FyGiLr_u4U-165" edge="1">
          <mxGeometry width="160" relative="1" as="geometry">
            <mxPoint x="287" y="881" as="sourcePoint" />
            <mxPoint x="447" y="881" as="targetPoint" />
          </mxGeometry>
        </mxCell>
        <mxCell id="fOX6goUL02FyGiLr_u4U-178" value="&lt;div&gt;Association&lt;/div&gt;&lt;div&gt;Multiplicity&lt;br&gt;&lt;/div&gt;" style="text;html=1;align=center;verticalAlign=middle;resizable=0;points=[];autosize=1;strokeColor=none;fillColor=none;" parent="1" vertex="1">
          <mxGeometry x="971" y="716" width="79" height="41" as="geometry" />
        </mxCell>
        <mxCell id="fOX6goUL02FyGiLr_u4U-179" value="Person" style="swimlane;fontStyle=0;childLayout=stackLayout;horizontal=1;startSize=26;fillColor=none;horizontalStack=0;resizeParent=1;resizeParentMax=0;resizeLast=0;collapsible=1;marginBottom=0;whiteSpace=wrap;html=1;" parent="1" vertex="1">
          <mxGeometry x="971" y="914" width="283" height="164" as="geometry" />
        </mxCell>
        <mxCell id="fOX6goUL02FyGiLr_u4U-180" value="- id: int {readOnly}" style="text;strokeColor=none;fillColor=none;align=left;verticalAlign=top;spacingLeft=4;spacingRight=4;overflow=hidden;rotatable=0;points=[[0,0.5],[1,0.5]];portConstraint=eastwest;whiteSpace=wrap;html=1;" parent="fOX6goUL02FyGiLr_u4U-179" vertex="1">
          <mxGeometry y="26" width="283" height="26" as="geometry" />
        </mxCell>
        <mxCell id="fOX6goUL02FyGiLr_u4U-181" value="- name: String" style="text;strokeColor=none;fillColor=none;align=left;verticalAlign=top;spacingLeft=4;spacingRight=4;overflow=hidden;rotatable=0;points=[[0,0.5],[1,0.5]];portConstraint=eastwest;whiteSpace=wrap;html=1;" parent="fOX6goUL02FyGiLr_u4U-179" vertex="1">
          <mxGeometry y="52" width="283" height="26" as="geometry" />
        </mxCell>
        <mxCell id="fOX6goUL02FyGiLr_u4U-182" value="- age: int" style="text;strokeColor=none;fillColor=none;align=left;verticalAlign=top;spacingLeft=4;spacingRight=4;overflow=hidden;rotatable=0;points=[[0,0.5],[1,0.5]];portConstraint=eastwest;whiteSpace=wrap;html=1;" parent="fOX6goUL02FyGiLr_u4U-179" vertex="1">
          <mxGeometry y="78" width="283" height="26" as="geometry" />
        </mxCell>
        <mxCell id="fOX6goUL02FyGiLr_u4U-183" value="- bankAccountNumber: int" style="text;strokeColor=none;fillColor=none;align=left;verticalAlign=top;spacingLeft=4;spacingRight=4;overflow=hidden;rotatable=0;points=[[0,0.5],[1,0.5]];portConstraint=eastwest;whiteSpace=wrap;html=1;" parent="fOX6goUL02FyGiLr_u4U-179" vertex="1">
          <mxGeometry y="104" width="283" height="26" as="geometry" />
        </mxCell>
        <mxCell id="fOX6goUL02FyGiLr_u4U-184" value="" style="line;strokeWidth=1;fillColor=none;align=left;verticalAlign=middle;spacingTop=-1;spacingLeft=3;spacingRight=3;rotatable=0;labelPosition=right;points=[];portConstraint=eastwest;strokeColor=inherit;" parent="fOX6goUL02FyGiLr_u4U-179" vertex="1">
          <mxGeometry y="130" width="283" height="8" as="geometry" />
        </mxCell>
        <mxCell id="fOX6goUL02FyGiLr_u4U-185" value="+ Person(id: int, name: String, age: int)" style="text;strokeColor=none;fillColor=none;align=left;verticalAlign=top;spacingLeft=4;spacingRight=4;overflow=hidden;rotatable=0;points=[[0,0.5],[1,0.5]];portConstraint=eastwest;whiteSpace=wrap;html=1;" parent="fOX6goUL02FyGiLr_u4U-179" vertex="1">
          <mxGeometry y="138" width="283" height="26" as="geometry" />
        </mxCell>
        <mxCell id="fOX6goUL02FyGiLr_u4U-186" value="DriversLicense" style="swimlane;fontStyle=0;childLayout=stackLayout;horizontal=1;startSize=26;fillColor=none;horizontalStack=0;resizeParent=1;resizeParentMax=0;resizeLast=0;collapsible=1;marginBottom=0;whiteSpace=wrap;html=1;" parent="1" vertex="1">
          <mxGeometry x="1010" y="770" width="233.5" height="78" as="geometry" />
        </mxCell>
        <mxCell id="fOX6goUL02FyGiLr_u4U-187" value="- accountNumber: int" style="text;strokeColor=none;fillColor=none;align=left;verticalAlign=top;spacingLeft=4;spacingRight=4;overflow=hidden;rotatable=0;points=[[0,0.5],[1,0.5]];portConstraint=eastwest;whiteSpace=wrap;html=1;" parent="fOX6goUL02FyGiLr_u4U-186" vertex="1">
          <mxGeometry y="26" width="233.5" height="26" as="geometry" />
        </mxCell>
        <mxCell id="fOX6goUL02FyGiLr_u4U-188" value="- balance: long" style="text;strokeColor=none;fillColor=none;align=left;verticalAlign=top;spacingLeft=4;spacingRight=4;overflow=hidden;rotatable=0;points=[[0,0.5],[1,0.5]];portConstraint=eastwest;whiteSpace=wrap;html=1;" parent="fOX6goUL02FyGiLr_u4U-186" vertex="1">
          <mxGeometry y="52" width="233.5" height="26" as="geometry" />
        </mxCell>
        <mxCell id="fOX6goUL02FyGiLr_u4U-190" value="Passport" style="swimlane;fontStyle=0;childLayout=stackLayout;horizontal=1;startSize=26;fillColor=none;horizontalStack=0;resizeParent=1;resizeParentMax=0;resizeLast=0;collapsible=1;marginBottom=0;whiteSpace=wrap;html=1;" parent="1" vertex="1">
          <mxGeometry x="698" y="992" width="194.5" height="52" as="geometry" />
        </mxCell>
        <mxCell id="fOX6goUL02FyGiLr_u4U-191" value="+&amp;nbsp;passportNumber: int" style="text;strokeColor=none;fillColor=none;align=left;verticalAlign=top;spacingLeft=4;spacingRight=4;overflow=hidden;rotatable=0;points=[[0,0.5],[1,0.5]];portConstraint=eastwest;whiteSpace=wrap;html=1;" parent="fOX6goUL02FyGiLr_u4U-190" vertex="1">
          <mxGeometry y="26" width="194.5" height="26" as="geometry" />
        </mxCell>
        <mxCell id="fOX6goUL02FyGiLr_u4U-195" value="" style="endArrow=none;html=1;edgeStyle=orthogonalEdgeStyle;rounded=0;entryX=0;entryY=0.5;entryDx=0;entryDy=0;exitX=1;exitY=0.25;exitDx=0;exitDy=0;" parent="1" source="fOX6goUL02FyGiLr_u4U-190" target="fOX6goUL02FyGiLr_u4U-182" edge="1">
          <mxGeometry relative="1" as="geometry">
            <mxPoint x="885" y="1012" as="sourcePoint" />
            <mxPoint x="1022" y="998" as="targetPoint" />
          </mxGeometry>
        </mxCell>
        <mxCell id="fOX6goUL02FyGiLr_u4U-196" value="&amp;nbsp;1" style="edgeLabel;resizable=0;html=1;align=left;verticalAlign=bottom;" parent="fOX6goUL02FyGiLr_u4U-195" connectable="0" vertex="1">
          <mxGeometry x="-1" relative="1" as="geometry" />
        </mxCell>
        <mxCell id="fOX6goUL02FyGiLr_u4U-197" value="1" style="edgeLabel;resizable=0;html=1;align=right;verticalAlign=bottom;" parent="fOX6goUL02FyGiLr_u4U-195" connectable="0" vertex="1">
          <mxGeometry x="1" relative="1" as="geometry">
            <mxPoint x="-4" as="offset" />
          </mxGeometry>
        </mxCell>
        <mxCell id="fOX6goUL02FyGiLr_u4U-198" value="EmailAddress" style="swimlane;fontStyle=0;childLayout=stackLayout;horizontal=1;startSize=26;fillColor=none;horizontalStack=0;resizeParent=1;resizeParentMax=0;resizeLast=0;collapsible=1;marginBottom=0;whiteSpace=wrap;html=1;" parent="1" vertex="1">
          <mxGeometry x="687" y="801" width="233.5" height="78" as="geometry" />
        </mxCell>
        <mxCell id="fOX6goUL02FyGiLr_u4U-199" value="- Username: String" style="text;strokeColor=none;fillColor=none;align=left;verticalAlign=top;spacingLeft=4;spacingRight=4;overflow=hidden;rotatable=0;points=[[0,0.5],[1,0.5]];portConstraint=eastwest;whiteSpace=wrap;html=1;" parent="fOX6goUL02FyGiLr_u4U-198" vertex="1">
          <mxGeometry y="26" width="233.5" height="26" as="geometry" />
        </mxCell>
        <mxCell id="fOX6goUL02FyGiLr_u4U-200" value="- Domain: String" style="text;strokeColor=none;fillColor=none;align=left;verticalAlign=top;spacingLeft=4;spacingRight=4;overflow=hidden;rotatable=0;points=[[0,0.5],[1,0.5]];portConstraint=eastwest;whiteSpace=wrap;html=1;" parent="fOX6goUL02FyGiLr_u4U-198" vertex="1">
          <mxGeometry y="52" width="233.5" height="26" as="geometry" />
        </mxCell>
        <mxCell id="fOX6goUL02FyGiLr_u4U-201" value="" style="endArrow=none;html=1;edgeStyle=orthogonalEdgeStyle;rounded=0;entryX=0;entryY=0;entryDx=0;entryDy=0;exitX=1;exitY=0.25;exitDx=0;exitDy=0;" parent="1" target="fOX6goUL02FyGiLr_u4U-179" edge="1">
          <mxGeometry relative="1" as="geometry">
            <mxPoint x="917.75" y="879" as="sourcePoint" />
            <mxPoint x="995.75" y="879" as="targetPoint" />
          </mxGeometry>
        </mxCell>
        <mxCell id="fOX6goUL02FyGiLr_u4U-202" value="*" style="edgeLabel;resizable=0;html=1;align=left;verticalAlign=bottom;" parent="fOX6goUL02FyGiLr_u4U-201" connectable="0" vertex="1">
          <mxGeometry x="-1" relative="1" as="geometry">
            <mxPoint x="5" as="offset" />
          </mxGeometry>
        </mxCell>
        <mxCell id="fOX6goUL02FyGiLr_u4U-203" value="1" style="edgeLabel;resizable=0;html=1;align=right;verticalAlign=bottom;" parent="fOX6goUL02FyGiLr_u4U-201" connectable="0" vertex="1">
          <mxGeometry x="1" relative="1" as="geometry">
            <mxPoint x="-4" as="offset" />
          </mxGeometry>
        </mxCell>
        <mxCell id="fOX6goUL02FyGiLr_u4U-204" value="" style="endArrow=none;html=1;edgeStyle=orthogonalEdgeStyle;rounded=0;entryX=0.5;entryY=1;entryDx=0;entryDy=0;exitX=0.5;exitY=0;exitDx=0;exitDy=0;" parent="1" source="fOX6goUL02FyGiLr_u4U-179" target="fOX6goUL02FyGiLr_u4U-186" edge="1">
          <mxGeometry relative="1" as="geometry">
            <mxPoint x="1101" y="885" as="sourcePoint" />
            <mxPoint x="1179" y="885" as="targetPoint" />
          </mxGeometry>
        </mxCell>
        <mxCell id="fOX6goUL02FyGiLr_u4U-205" value="&amp;nbsp;1" style="edgeLabel;resizable=0;html=1;align=left;verticalAlign=bottom;" parent="fOX6goUL02FyGiLr_u4U-204" connectable="0" vertex="1">
          <mxGeometry x="-1" relative="1" as="geometry" />
        </mxCell>
        <mxCell id="fOX6goUL02FyGiLr_u4U-206" value="0..1" style="edgeLabel;resizable=0;html=1;align=right;verticalAlign=bottom;" parent="fOX6goUL02FyGiLr_u4U-204" connectable="0" vertex="1">
          <mxGeometry x="1" relative="1" as="geometry">
            <mxPoint x="24" y="19" as="offset" />
          </mxGeometry>
        </mxCell>
        <mxCell id="fOX6goUL02FyGiLr_u4U-216" value="BankAccount" style="swimlane;fontStyle=0;childLayout=stackLayout;horizontal=1;startSize=26;fillColor=none;horizontalStack=0;resizeParent=1;resizeParentMax=0;resizeLast=0;collapsible=1;marginBottom=0;whiteSpace=wrap;html=1;" parent="1" vertex="1">
          <mxGeometry x="1349" y="792" width="233.5" height="78" as="geometry" />
        </mxCell>
        <mxCell id="fOX6goUL02FyGiLr_u4U-217" value="- accountNumber: int" style="text;strokeColor=none;fillColor=none;align=left;verticalAlign=top;spacingLeft=4;spacingRight=4;overflow=hidden;rotatable=0;points=[[0,0.5],[1,0.5]];portConstraint=eastwest;whiteSpace=wrap;html=1;" parent="fOX6goUL02FyGiLr_u4U-216" vertex="1">
          <mxGeometry y="26" width="233.5" height="26" as="geometry" />
        </mxCell>
        <mxCell id="fOX6goUL02FyGiLr_u4U-218" value="- balance: long" style="text;strokeColor=none;fillColor=none;align=left;verticalAlign=top;spacingLeft=4;spacingRight=4;overflow=hidden;rotatable=0;points=[[0,0.5],[1,0.5]];portConstraint=eastwest;whiteSpace=wrap;html=1;" parent="fOX6goUL02FyGiLr_u4U-216" vertex="1">
          <mxGeometry y="52" width="233.5" height="26" as="geometry" />
        </mxCell>
        <mxCell id="fOX6goUL02FyGiLr_u4U-219" value="" style="endArrow=none;html=1;edgeStyle=orthogonalEdgeStyle;rounded=0;entryX=0;entryY=1;entryDx=0;entryDy=0;exitX=1;exitY=0;exitDx=0;exitDy=0;" parent="1" source="fOX6goUL02FyGiLr_u4U-179" target="fOX6goUL02FyGiLr_u4U-216" edge="1">
          <mxGeometry relative="1" as="geometry">
            <mxPoint x="1305" y="922" as="sourcePoint" />
            <mxPoint x="1358.25" y="957" as="targetPoint" />
          </mxGeometry>
        </mxCell>
        <mxCell id="fOX6goUL02FyGiLr_u4U-220" value="0..*" style="edgeLabel;resizable=0;html=1;align=left;verticalAlign=bottom;" parent="fOX6goUL02FyGiLr_u4U-219" connectable="0" vertex="1">
          <mxGeometry x="-1" relative="1" as="geometry">
            <mxPoint x="5" as="offset" />
          </mxGeometry>
        </mxCell>
        <mxCell id="fOX6goUL02FyGiLr_u4U-221" value="1" style="edgeLabel;resizable=0;html=1;align=right;verticalAlign=bottom;" parent="fOX6goUL02FyGiLr_u4U-219" connectable="0" vertex="1">
          <mxGeometry x="1" relative="1" as="geometry">
            <mxPoint x="12" y="24" as="offset" />
          </mxGeometry>
        </mxCell>
        <mxCell id="fOX6goUL02FyGiLr_u4U-223" value="FootballTeam" style="swimlane;fontStyle=0;childLayout=stackLayout;horizontal=1;startSize=26;fillColor=none;horizontalStack=0;resizeParent=1;resizeParentMax=0;resizeLast=0;collapsible=1;marginBottom=0;whiteSpace=wrap;html=1;" parent="1" vertex="1">
          <mxGeometry x="1352" y="981" width="233.5" height="78" as="geometry" />
        </mxCell>
        <mxCell id="fOX6goUL02FyGiLr_u4U-224" value="- accountNumber: int" style="text;strokeColor=none;fillColor=none;align=left;verticalAlign=top;spacingLeft=4;spacingRight=4;overflow=hidden;rotatable=0;points=[[0,0.5],[1,0.5]];portConstraint=eastwest;whiteSpace=wrap;html=1;" parent="fOX6goUL02FyGiLr_u4U-223" vertex="1">
          <mxGeometry y="26" width="233.5" height="26" as="geometry" />
        </mxCell>
        <mxCell id="fOX6goUL02FyGiLr_u4U-225" value="- balance: long" style="text;strokeColor=none;fillColor=none;align=left;verticalAlign=top;spacingLeft=4;spacingRight=4;overflow=hidden;rotatable=0;points=[[0,0.5],[1,0.5]];portConstraint=eastwest;whiteSpace=wrap;html=1;" parent="fOX6goUL02FyGiLr_u4U-223" vertex="1">
          <mxGeometry y="52" width="233.5" height="26" as="geometry" />
        </mxCell>
        <mxCell id="fOX6goUL02FyGiLr_u4U-226" value="" style="endArrow=none;html=1;edgeStyle=orthogonalEdgeStyle;rounded=0;entryX=0;entryY=0.5;entryDx=0;entryDy=0;exitX=1.014;exitY=0.077;exitDx=0;exitDy=0;exitPerimeter=0;" parent="1" source="fOX6goUL02FyGiLr_u4U-183" target="fOX6goUL02FyGiLr_u4U-224" edge="1">
          <mxGeometry relative="1" as="geometry">
            <mxPoint x="1275" y="1017.5" as="sourcePoint" />
            <mxPoint x="1353" y="1017.5" as="targetPoint" />
          </mxGeometry>
        </mxCell>
        <mxCell id="fOX6goUL02FyGiLr_u4U-227" value="&amp;nbsp;1" style="edgeLabel;resizable=0;html=1;align=left;verticalAlign=bottom;" parent="fOX6goUL02FyGiLr_u4U-226" connectable="0" vertex="1">
          <mxGeometry x="-1" relative="1" as="geometry" />
        </mxCell>
        <mxCell id="fOX6goUL02FyGiLr_u4U-228" value="7..22" style="edgeLabel;resizable=0;html=1;align=right;verticalAlign=bottom;" parent="fOX6goUL02FyGiLr_u4U-226" connectable="0" vertex="1">
          <mxGeometry x="1" relative="1" as="geometry">
            <mxPoint x="-4" as="offset" />
          </mxGeometry>
        </mxCell>
        <mxCell id="4WEVrMsifgTihzXS3Ytm-1" value="" style="swimlane;startSize=0;" vertex="1" parent="1">
          <mxGeometry x="-804" y="623" width="2425" height="977" as="geometry" />
        </mxCell>
        <mxCell id="4WEVrMsifgTihzXS3Ytm-2" value="Association" style="text;html=1;align=center;verticalAlign=middle;resizable=0;points=[];autosize=1;strokeColor=none;fillColor=none;" vertex="1" parent="4WEVrMsifgTihzXS3Ytm-1">
          <mxGeometry x="20" y="17" width="79" height="26" as="geometry" />
        </mxCell>
        <mxCell id="4WEVrMsifgTihzXS3Ytm-3" value="&lt;div&gt;Association&lt;/div&gt;&lt;div&gt;Reflexive&lt;br&gt;&lt;/div&gt;" style="text;html=1;align=center;verticalAlign=middle;resizable=0;points=[];autosize=1;strokeColor=none;fillColor=none;" vertex="1" parent="4WEVrMsifgTihzXS3Ytm-1">
          <mxGeometry x="144" y="546" width="79" height="41" as="geometry" />
        </mxCell>
        <mxCell id="4WEVrMsifgTihzXS3Ytm-4" value="&lt;div&gt;Association&lt;/div&gt;&lt;div&gt;Composition&lt;br&gt;&lt;/div&gt;" style="text;html=1;align=center;verticalAlign=middle;resizable=0;points=[];autosize=1;strokeColor=none;fillColor=none;" vertex="1" parent="4WEVrMsifgTihzXS3Ytm-1">
          <mxGeometry x="1061" y="584" width="85" height="41" as="geometry" />
        </mxCell>
        <mxCell id="4WEVrMsifgTihzXS3Ytm-5" value="&lt;div&gt;Association&lt;/div&gt;&lt;div&gt;Aggregation&lt;br&gt;&lt;/div&gt;" style="text;html=1;align=center;verticalAlign=middle;resizable=0;points=[];autosize=1;strokeColor=none;fillColor=none;" vertex="1" parent="4WEVrMsifgTihzXS3Ytm-1">
          <mxGeometry x="598" y="587" width="83" height="41" as="geometry" />
        </mxCell>
        <mxCell id="4WEVrMsifgTihzXS3Ytm-6" value="Category" style="swimlane;fontStyle=0;childLayout=stackLayout;horizontal=1;startSize=26;fillColor=none;horizontalStack=0;resizeParent=1;resizeParentMax=0;resizeLast=0;collapsible=1;marginBottom=0;whiteSpace=wrap;html=1;" vertex="1" parent="4WEVrMsifgTihzXS3Ytm-1">
          <mxGeometry x="62.5" y="656" width="236" height="86" as="geometry" />
        </mxCell>
        <mxCell id="4WEVrMsifgTihzXS3Ytm-8" value="- name: String" style="text;strokeColor=none;fillColor=none;align=left;verticalAlign=top;spacingLeft=4;spacingRight=4;overflow=hidden;rotatable=0;points=[[0,0.5],[1,0.5]];portConstraint=eastwest;whiteSpace=wrap;html=1;" vertex="1" parent="4WEVrMsifgTihzXS3Ytm-6">
          <mxGeometry y="26" width="236" height="26" as="geometry" />
        </mxCell>
        <mxCell id="4WEVrMsifgTihzXS3Ytm-10" value="" style="line;strokeWidth=1;fillColor=none;align=left;verticalAlign=middle;spacingTop=-1;spacingLeft=3;spacingRight=3;rotatable=0;labelPosition=right;points=[];portConstraint=eastwest;strokeColor=inherit;" vertex="1" parent="4WEVrMsifgTihzXS3Ytm-6">
          <mxGeometry y="52" width="236" height="8" as="geometry" />
        </mxCell>
        <mxCell id="4WEVrMsifgTihzXS3Ytm-11" value="+ Category(name: String)" style="text;strokeColor=none;fillColor=none;align=left;verticalAlign=top;spacingLeft=4;spacingRight=4;overflow=hidden;rotatable=0;points=[[0,0.5],[1,0.5]];portConstraint=eastwest;whiteSpace=wrap;html=1;" vertex="1" parent="4WEVrMsifgTihzXS3Ytm-6">
          <mxGeometry y="60" width="236" height="26" as="geometry" />
        </mxCell>
        <mxCell id="4WEVrMsifgTihzXS3Ytm-13" value="" style="endArrow=none;html=1;edgeStyle=orthogonalEdgeStyle;rounded=0;exitX=1;exitY=0;exitDx=0;exitDy=0;entryX=0.989;entryY=1.038;entryDx=0;entryDy=0;entryPerimeter=0;" edge="1" parent="4WEVrMsifgTihzXS3Ytm-6" source="4WEVrMsifgTihzXS3Ytm-6" target="4WEVrMsifgTihzXS3Ytm-11">
          <mxGeometry relative="1" as="geometry">
            <mxPoint x="297.5" y="43" as="sourcePoint" />
            <mxPoint x="457.5" y="43" as="targetPoint" />
            <Array as="points">
              <mxPoint x="181" />
              <mxPoint x="181" y="-26" />
              <mxPoint x="295" y="-26" />
              <mxPoint x="295" y="87" />
            </Array>
          </mxGeometry>
        </mxCell>
        <mxCell id="4WEVrMsifgTihzXS3Ytm-16" value="&lt;div&gt;Subcategories&lt;br&gt;&lt;/div&gt;&lt;div&gt;0..*&lt;/div&gt;" style="text;html=1;align=center;verticalAlign=middle;resizable=0;points=[];autosize=1;strokeColor=none;fillColor=none;" vertex="1" parent="4WEVrMsifgTihzXS3Ytm-1">
          <mxGeometry x="362" y="661" width="95" height="41" as="geometry" />
        </mxCell>
        <mxCell id="4WEVrMsifgTihzXS3Ytm-24" value="&lt;div&gt;Parent categories&lt;br&gt;&lt;/div&gt;&lt;div&gt;0..1&lt;/div&gt;" style="text;html=1;align=center;verticalAlign=middle;resizable=0;points=[];autosize=1;strokeColor=none;fillColor=none;" vertex="1" parent="4WEVrMsifgTihzXS3Ytm-1">
          <mxGeometry x="326" y="771" width="112" height="41" as="geometry" />
        </mxCell>
        <mxCell id="4WEVrMsifgTihzXS3Ytm-23" value="&lt;div&gt;Subcategories&lt;br&gt;&lt;/div&gt;&lt;div&gt;0..*&lt;/div&gt;" style="text;html=1;align=center;verticalAlign=middle;resizable=0;points=[];autosize=1;strokeColor=none;fillColor=none;" vertex="1" parent="4WEVrMsifgTihzXS3Ytm-1">
          <mxGeometry x="331" y="926" width="95" height="41" as="geometry" />
        </mxCell>
        <mxCell id="4WEVrMsifgTihzXS3Ytm-18" value="Category" style="swimlane;fontStyle=0;childLayout=stackLayout;horizontal=1;startSize=26;fillColor=none;horizontalStack=0;resizeParent=1;resizeParentMax=0;resizeLast=0;collapsible=1;marginBottom=0;whiteSpace=wrap;html=1;" vertex="1" parent="1">
          <mxGeometry x="-744" y="1452" width="236" height="86" as="geometry" />
        </mxCell>
        <mxCell id="4WEVrMsifgTihzXS3Ytm-19" value="- name: String" style="text;strokeColor=none;fillColor=none;align=left;verticalAlign=top;spacingLeft=4;spacingRight=4;overflow=hidden;rotatable=0;points=[[0,0.5],[1,0.5]];portConstraint=eastwest;whiteSpace=wrap;html=1;" vertex="1" parent="4WEVrMsifgTihzXS3Ytm-18">
          <mxGeometry y="26" width="236" height="26" as="geometry" />
        </mxCell>
        <mxCell id="4WEVrMsifgTihzXS3Ytm-20" value="" style="line;strokeWidth=1;fillColor=none;align=left;verticalAlign=middle;spacingTop=-1;spacingLeft=3;spacingRight=3;rotatable=0;labelPosition=right;points=[];portConstraint=eastwest;strokeColor=inherit;" vertex="1" parent="4WEVrMsifgTihzXS3Ytm-18">
          <mxGeometry y="52" width="236" height="8" as="geometry" />
        </mxCell>
        <mxCell id="4WEVrMsifgTihzXS3Ytm-21" value="+ Category(name: String)" style="text;strokeColor=none;fillColor=none;align=left;verticalAlign=top;spacingLeft=4;spacingRight=4;overflow=hidden;rotatable=0;points=[[0,0.5],[1,0.5]];portConstraint=eastwest;whiteSpace=wrap;html=1;" vertex="1" parent="4WEVrMsifgTihzXS3Ytm-18">
          <mxGeometry y="60" width="236" height="26" as="geometry" />
        </mxCell>
        <mxCell id="4WEVrMsifgTihzXS3Ytm-22" value="" style="endArrow=none;html=1;edgeStyle=orthogonalEdgeStyle;rounded=0;exitX=1;exitY=0;exitDx=0;exitDy=0;entryX=0.989;entryY=1.038;entryDx=0;entryDy=0;entryPerimeter=0;" edge="1" parent="4WEVrMsifgTihzXS3Ytm-18" source="4WEVrMsifgTihzXS3Ytm-18" target="4WEVrMsifgTihzXS3Ytm-21">
          <mxGeometry relative="1" as="geometry">
            <mxPoint x="297.5" y="43" as="sourcePoint" />
            <mxPoint x="457.5" y="43" as="targetPoint" />
            <Array as="points">
              <mxPoint x="181" />
              <mxPoint x="181" y="-26" />
              <mxPoint x="295" y="-26" />
              <mxPoint x="295" y="87" />
            </Array>
          </mxGeometry>
        </mxCell>
      </root>
    </mxGraphModel>
  </diagram>
</mxfile>
